<svg xmlns="http://www.w3.org/2000/svg" width="720" height="500" viewBox="0 0 720 500" role="img" aria-labelledby="plot-title plot-desc"><title id="plot-title">Test calibration — Multinomial logistic regression</title><desc id="plot-desc">down: 10/10 populated bins, largest absolute gap 0.2278; flat: 10/10 populated bins, largest absolute gap 0.8543; up: 10/10 populated bins, largest absolute gap 0.3465.</desc><rect width="720" height="500" fill="#FFFFFF"/><text x="360" y="28" text-anchor="middle" font-family="sans-serif" font-size="18" font-weight="bold">Test calibration — Multinomial logistic regression</text><line x1="82.00" y1="56.00" x2="82.00" y2="420.00" stroke="#D9D9D9" stroke-width="1"/><line x1="82.00" y1="420.00" x2="690.00" y2="420.00" stroke="#D9D9D9" stroke-width="1"/><text x="82.00" y="442" text-anchor="middle" font-family="sans-serif" font-size="12">0.0</text><text x="68" y="424.00" text-anchor="end" font-family="sans-serif" font-size="12">0.0</text><line x1="203.60" y1="56.00" x2="203.60" y2="420.00" stroke="#D9D9D9" stroke-width="1"/><line x1="82.00" y1="347.20" x2="690.00" y2="347.20" stroke="#D9D9D9" stroke-width="1"/><text x="203.60" y="442" text-anchor="middle" font-family="sans-serif" font-size="12">0.2</text><text x="68" y="351.20" text-anchor="end" font-family="sans-serif" font-size="12">0.2</text><line x1="325.20" y1="56.00" x2="325.20" y2="420.00" stroke="#D9D9D9" stroke-width="1"/><line x1="82.00" y1="274.40" x2="690.00" y2="274.40" stroke="#D9D9D9" stroke-width="1"/><text x="325.20" y="442" text-anchor="middle" font-family="sans-serif" font-size="12">0.4</text><text x="68" y="278.40" text-anchor="end" font-family="sans-serif" font-size="12">0.4</text><line x1="446.80" y1="56.00" x2="446.80" y2="420.00" stroke="#D9D9D9" stroke-width="1"/><line x1="82.00" y1="201.60" x2="690.00" y2="201.60" stroke="#D9D9D9" stroke-width="1"/><text x="446.80" y="442" text-anchor="middle" font-family="sans-serif" font-size="12">0.6</text><text x="68" y="205.60" text-anchor="end" font-family="sans-serif" font-size="12">0.6</text><line x1="568.40" y1="56.00" x2="568.40" y2="420.00" stroke="#D9D9D9" stroke-width="1"/><line x1="82.00" y1="128.80" x2="690.00" y2="128.80" stroke="#D9D9D9" stroke-width="1"/><text x="568.40" y="442" text-anchor="middle" font-family="sans-serif" font-size="12">0.8</text><text x="68" y="132.80" text-anchor="end" font-family="sans-serif" font-size="12">0.8</text><line x1="690.00" y1="56.00" x2="690.00" y2="420.00" stroke="#D9D9D9" stroke-width="1"/><line x1="82.00" y1="56.00" x2="690.00" y2="56.00" stroke="#D9D9D9" stroke-width="1"/><text x="690.00" y="442" text-anchor="middle" font-family="sans-serif" font-size="12">1.0</text><text x="68" y="60.00" text-anchor="end" font-family="sans-serif" font-size="12">1.0</text><line x1="82.00" y1="420.00" x2="690.00" y2="56.00" stroke="#555555" stroke-width="2" stroke-dasharray="5 5"/><line x1="82.00" y1="420.00" x2="690.00" y2="420.00" stroke="#111111" stroke-width="2"/><line x1="82.00" y1="56.00" x2="82.00" y2="420.00" stroke="#111111" stroke-width="2"/><text x="386" y="478" text-anchor="middle" font-family="sans-serif" font-size="14">Mean predicted probability (unitless)</text><text x="20" y="238" text-anchor="middle" font-family="sans-serif" font-size="14" transform="rotate(-90 20 238)">Observed frequency (unitless)</text><path d="M 122.15 323.92 L 187.87 367.66 L 237.62 319.12 L 295.83 277.25 L 352.88 248.38 L 411.55 225.41 L 469.59 197.05 L 529.99 170.50 L 587.79 168.30 L 646.11 165.20" fill="none" stroke="#0072B2" stroke-width="3"/><circle cx="122.15" cy="323.92" r="4" fill="#0072B2"/><circle cx="187.87" cy="367.66" r="4" fill="#0072B2"/><circle cx="237.62" cy="319.12" r="4" fill="#0072B2"/><circle cx="295.83" cy="277.25" r="4" fill="#0072B2"/><circle cx="352.88" cy="248.38" r="4" fill="#0072B2"/><circle cx="411.55" cy="225.41" r="4" fill="#0072B2"/><circle cx="469.59" cy="197.05" r="4" fill="#0072B2"/><circle cx="529.99" cy="170.50" r="4" fill="#0072B2"/><circle cx="587.79" cy="168.30" r="4" fill="#0072B2"/><circle cx="646.11" cy="165.20" r="4" fill="#0072B2"/><line x1="520" y1="72" x2="555" y2="72" stroke="#0072B2" stroke-width="3" /><circle cx="538.00" cy="72.00" r="4" fill="#0072B2"/><text x="565" y="76" font-family="sans-serif" font-size="13">down</text><path d="M 114.47 402.84 L 170.62 392.43 L 231.96 363.72 L 295.18 300.16 L 346.04 246.10 L 396.53 224.14 L 472.71 316.00 L 549.88 420.00 L 601.39 420.00 L 643.99 389.67" fill="none" stroke="#E69F00" stroke-width="3" stroke-dasharray="8 4"/><rect x="110.47" y="398.84" width="8" height="8" fill="#E69F00"/><rect x="166.62" y="388.43" width="8" height="8" fill="#E69F00"/><rect x="227.96" y="359.72" width="8" height="8" fill="#E69F00"/><rect x="291.18" y="296.16" width="8" height="8" fill="#E69F00"/><rect x="342.04" y="242.10" width="8" height="8" fill="#E69F00"/><rect x="392.53" y="220.14" width="8" height="8" fill="#E69F00"/><rect x="468.71" y="312.00" width="8" height="8" fill="#E69F00"/><rect x="545.88" y="416.00" width="8" height="8" fill="#E69F00"/><rect x="597.39" y="416.00" width="8" height="8" fill="#E69F00"/><rect x="639.99" y="385.67" width="8" height="8" fill="#E69F00"/><line x1="520" y1="96" x2="555" y2="96" stroke="#E69F00" stroke-width="3" stroke-dasharray="8 4"/><rect x="534.00" y="92.00" width="8" height="8" fill="#E69F00"/><text x="565" y="100" font-family="sans-serif" font-size="13">flat</text><path d="M 124.20 385.20 L 185.33 367.00 L 236.83 322.84 L 296.25 276.67 L 353.97 243.87 L 412.41 220.68 L 468.65 209.12 L 529.47 216.21 L 590.14 227.76 L 643.97 209.69" fill="none" stroke="#009E73" stroke-width="3" stroke-dasharray="2 3"/><polygon points="124.20,380.20 119.20,389.20 129.20,389.20" fill="#009E73"/><polygon points="185.33,362.00 180.33,371.00 190.33,371.00" fill="#009E73"/><polygon points="236.83,317.84 231.83,326.84 241.83,326.84" fill="#009E73"/><polygon points="296.25,271.67 291.25,280.67 301.25,280.67" fill="#009E73"/><polygon points="353.97,238.87 348.97,247.87 358.97,247.87" fill="#009E73"/><polygon points="412.41,215.68 407.41,224.68 417.41,224.68" fill="#009E73"/><polygon points="468.65,204.12 463.65,213.12 473.65,213.12" fill="#009E73"/><polygon points="529.47,211.21 524.47,220.21 534.47,220.21" fill="#009E73"/><polygon points="590.14,222.76 585.14,231.76 595.14,231.76" fill="#009E73"/><polygon points="643.97,204.69 638.97,213.69 648.97,213.69" fill="#009E73"/><line x1="520" y1="120" x2="555" y2="120" stroke="#009E73" stroke-width="3" stroke-dasharray="2 3"/><polygon points="538.00,115.00 533.00,124.00 543.00,124.00" fill="#009E73"/><text x="565" y="124" font-family="sans-serif" font-size="13">up</text></svg>
